<?xml version="1.0" encoding="UTF-8" standalone="no"?>
<svg xmlns:rdf="http://www.w3.org/1999/02/22-rdf-syntax-ns#" xmlns="http://www.w3.org/2000/svg" height="134.11mm" width="133.61mm" version="1.1" xmlns:cc="http://creativecommons.org/ns#" xmlns:xlink="http://www.w3.org/1999/xlink" viewBox="0 0 473.42034 475.1933" xmlns:dc="http://purl.org/dc/elements/1.1/">
 <g stroke-linejoin="round" stroke-opacity=".44560" transform="translate(-123.66 -338.43)" display="none" stroke="#003b61" stroke-width="15.198" fill="none">
  <path d="m-1730.3 587.28a28.605 41.028 0 0 0 -14.978 5.4863 28.605 41.028 0 0 0 -14.301 35.531l57.209-0.002a28.605 41.028 0 0 0 -14.303 -35.529 28.605 41.028 0 0 0 -13.627 -5.4863z"/>
  <path d="m-1729 630.34a84.552 66.668 0 0 0 -44.271 8.9141 84.552 66.668 0 0 0 -42.275 57.734h169.1a84.552 66.668 0 0 0 -42.275 -57.734 84.552 66.668 0 0 0 -40.281 -8.9141z"/>
  <path d="m-1822.6 704.71c-16.62 0-30 12.036-30 26.986s13.38 26.988 30 26.988h16.4c1.2709-0.127 2.5529-0.20898 3.8516-0.20898h142.7c1.2984 0 2.5809 0.082 3.8516 0.20898h16.4c16.62 0 30-12.038 30-26.988s-13.38-26.986-30-26.986h-183.21z"/>
  <path d="m-1655.8 758.68h-150.41c-23.72 2.3705-42.246 26.413-42.246 55.934v216.88c0 31.102 20.56 56.143 46.098 56.143h142.7c25.538 0 46.098-25.04 46.098-56.143v-216.88c0-29.521-18.525-53.563-42.246-55.934z"/>
 </g>
 <g transform="translate(-123.66 -338.43)" display="none">
  <path id="a" stroke-linejoin="round" d="m-1730.3 583.6v36.783h30.758a31.502 36.794 0 0 0 -15.751 -31.863 31.502 36.794 0 0 0 -15.007 -4.9202z" stroke="#690944" stroke-width="15.198" fill="none"/>
  <path id="b" stroke-linejoin="round" d="m-1729 619.72a87.403 85.016 0 0 0 -1.3629 0.0348v84.957h86.704a87.403 85.016 0 0 0 -43.701 -73.624 87.403 85.016 0 0 0 -41.64 -11.367z" stroke="#690944" stroke-width="15.198" fill="none"/>
  <path id="c" stroke-linejoin="round" d="m-1730.3 704.71v53.766h70.676c1.2984 0 2.5809 0.082 3.8516 0.20898h16.4c36.12 0 30-12.038 30-26.988s-13.38-26.986-30-26.986z" stroke="#690944" stroke-width="15.198" fill="none"/>
  <path id="d" stroke-linejoin="round" d="m-1655.8 758.68h-74.527v385.96h70.676c25.538 0 46.624-29.383 46.098-65.871-1.2267-85.127-9.371-177.77 5-253.46 6.4538-33.991-23.525-63.845-47.246-66.626z" stroke="#690944" stroke-width="15.198" fill="none"/>
  <use xlink:href="#a" transform="matrix(-1 0 0 1 -3460.6 0)" height="100%" width="100%" y="0" x="0"/>
  <use xlink:href="#b" transform="matrix(-1 0 0 1 -3460.6 0)" height="100%" width="100%" y="0" x="0"/>
  <use xlink:href="#c" transform="matrix(-1 0 0 1 -3460.6 0)" height="100%" width="100%" y="0" x="0"/>
  <use xlink:href="#d" transform="matrix(-1 0 0 1 -3460.6 0)" height="100%" width="100%" y="0" x="0"/>
  <g stroke-linejoin="round" stroke-opacity=".44560" stroke="#610054" stroke-width="15.198" fill="none">
   <path d="m-1730.3-292.72v41.016h27.93a28.605 41.028 0 0 0 -14.303 -35.529 28.605 41.028 0 0 0 -13.627 -5.4863z"/>
   <path d="m-1729-249.66a84.552 66.668 0 0 0 -1.3184 0.0273v66.621h83.875a84.552 66.668 0 0 0 -42.275 -57.734 84.552 66.668 0 0 0 -40.281 -8.9141z"/>
   <path d="m-1730.3-175.29v53.766h70.676c1.2984 0 2.5809 0.082 3.8516 0.20898h16.4c16.62 0 30-12.038 30-26.988s-13.38-26.986-30-26.986h-90.928z"/>
   <path d="m-1655.8-121.32h-74.527v328.96h70.676c25.538 0 46.098-25.04 46.098-56.143v-216.88c0-29.521-18.525-53.563-42.246-55.934z"/>
  </g>
  <g stroke="#610054" stroke-opacity=".44560">
   <use xlink:href="#a" transform="matrix(-1 0 0 1 -3460.6 -873.09)" height="100%" width="100%" y="0" x="0"/>
   <use xlink:href="#b" transform="matrix(-1 0 0 1 -3460.6 -887.72)" height="100%" width="100%" y="0" x="0"/>
   <use xlink:href="#c" transform="matrix(-1 0 0 1 -3460.6 -880)" height="100%" width="100%" y="0" x="0"/>
   <use xlink:href="#d" transform="matrix(-1 0 0 1 -3460.6 -880)" height="100%" width="100%" y="0" x="0"/>
  </g>
  <text style="word-spacing:0px;letter-spacing:0px" font-family="sans-serif" xml:space="preserve" font-size="312.5px" stroke="#690944" y="1000.3622" x="-1862" stroke-width="1px" line-height="125%" fill="#690943"><tspan font-size="312.5px" stroke="#690944" y="1000.3622" x="-1862" fill="#690943">~</tspan></text>
 </g>
 <g transform="translate(-123.66 -338.43)" display="none">
  <g transform="translate(2100.2 -358.38)">
   <g transform="translate(6,44)">
    <g transform="translate(10 4)">
     <path stroke-linejoin="round" d="m-1730.3 582.97c-5.2762 0.14588-10.437 1.8374-15.008 4.9199-9.7464 6.5723-15.75 18.718-15.75 31.863h29.394 1.3633 1.3633 29.394c-0.0005-13.145-6.0055-25.291-15.752-31.863-4.5705-3.0825-9.7297-4.774-15.006-4.9199zm1.3633 36.783c-0.4545 0.008-0.909 0.0201-1.3633 0.0352-0.4543-0.0152-0.9088-0.027-1.3633-0.0352-14.639 0.33644-28.957 4.2452-41.639 11.367-27.03 15.18-43.686 43.227-43.701 73.584h86.703 86.703c-0.015-30.357-16.671-58.404-43.701-73.584-12.682-7.122-26.999-11.031-41.639-11.367zm85.34 84.951v0.041h-86.703-86.703v-0.041h-4.2246c-16.62 0-30 12.036-30 26.986s-6.12 26.988 30 26.988h16.4c1.2707-0.12698 2.5531-0.20898 3.8515-0.20898h70.676 70.676c1.2984 0 2.5809 0.082 3.8516 0.20898h16.4c36.12 0 30-12.038 30-26.988s-13.38-26.986-30-26.986h-4.2246zm-12.176 53.975h-74.527-74.527c-23.721 2.7256-53.7 31.987-47.246 65.303 14.371 74.186 6.2267 165 5 248.43-0.5258 35.764 20.56 64.564 46.098 64.564h70.676 70.676c25.538 0 46.624-28.8 46.098-64.564-1.2267-83.438-9.371-174.25 5-248.43 6.4538-33.316-23.525-62.577-47.246-65.303z" display="inline" stroke="#000" stroke-width="15.198" fill="none"/>
     <path d="m-1640.3 886.36v24.988q-14.74 11.09-27.374 15.863-12.494 4.773-26.111 4.773-15.442 0-35.938-8.2825-1.5442-0.56152-2.2461-0.84229-0.9827-0.42114-3.0884-1.123-21.759-8.7036-34.955-8.7036-12.354 0-24.426 5.4749-12.073 5.3345-25.83 16.986v-24.988q14.74-11.09 27.234-15.863 12.634-4.9133 26.251-4.9133 15.442 0 36.078 8.4228 1.4038 0.56153 2.1057 0.84229 1.123 0.42114 3.0884 1.123 21.759 8.7036 34.955 8.7036 12.073 0 23.865-5.3345 11.932-5.3345 26.392-17.126z"/>
    </g>
   </g>
  </g>
 </g>
 <g transform="translate(-123.66 -338.43)">
  <g transform="translate(2106.2 -314.38)">
   <g transform="translate(10 4)">
    <g stroke="#ada9a9">
     <path stroke-linejoin="round" d="m-1606 841.05-52.699-52.699-52.699-52.699c-18.7-14.846-60.59-15.354-79.584 12.768-42.296 62.62-112.27 121.07-172.13 179.2-25.661 24.917-31.116 60.192-13.058 78.25l49.975 49.975 49.975 49.975c18.058 18.058 53.333 12.603 78.25-13.058 58.132-59.867 116.59-129.84 179.2-172.13 28.122-18.995 27.614-60.884 12.768-79.584zm46.775-29.556c-0.01 0.01-0.019 0.0193-0.029 0.029l-61.308-61.308-61.308-61.308c0.01-0.01 0.019-0.0193 0.029-0.029l-2.9872-2.9872c-11.752-11.752-29.724-12.703-40.296-2.131s-23.411 14.756 2.1296 40.297l11.597 11.597c0.9883 0.80873 1.9531 1.6576 2.8712 2.5756l49.975 49.975 49.975 49.975c0.9181 0.9181 1.7669 1.883 2.5757 2.8713l11.597 11.597c25.541 25.541 29.725 12.701 40.297 2.1296 10.572-10.572 9.6211-28.543-2.131-40.295l-2.9872-2.9872zm-0.2749-120.41c-0.327-0.31572-0.657-0.62855-0.9889-0.93911-0.3105-0.33199-0.6235-0.66171-0.9391-0.98889-10.589-10.114-23.478-17.474-37.481-21.405-29.847-8.3794-61.457-0.32449-82.933 21.13l61.308 61.308 61.308 61.308c21.455-21.476 29.51-53.086 21.13-82.933-3.9311-14.003-11.292-26.891-21.405-37.481zm20.368 22.588c9.5906-9.5914 14.071-22.835 11.756-34.742-1.0858-5.5839-3.6159-10.583-7.3591-14.539-3.9562-3.7433-8.9562-6.2748-14.54-7.3605-11.907-2.3159-25.149 2.1663-34.74 11.757" stroke-width="15.198" fill="none"/>
     <g transform="translate(-4.336 1.9437)" stroke-width="1px" fill="#ada9a9">
      <path d="m-1669.6 887v32.593q-19.226 14.465-35.706 20.691-16.296 6.2256-34.058 6.2256-20.142 0-46.875-10.803-2.0142-0.73243-2.9297-1.0986-1.2818-0.54931-4.0283-1.4648-28.381-11.353-45.593-11.353-16.113 0-31.86 7.1411-15.747 6.958-33.691 22.156v-32.593q19.226-14.465 35.522-20.691 16.48-6.4087 34.241-6.4087 20.142 0 47.058 10.986 1.8311 0.73242 2.7466 1.0986 1.4648 0.54932 4.0283 1.4648 28.381 11.353 45.593 11.353 15.747 0 31.128-6.958 15.564-6.958 34.424-22.339z" stroke="#ada9a9" fill="#ada9a9"/>
     </g>
    </g>
   </g>
  </g>
 </g>
</svg>
