<?xml version="1.0" encoding="UTF-8" standalone="no"?>
<svg
   xmlns:dc="http://purl.org/dc/elements/1.1/"
   xmlns:cc="http://creativecommons.org/ns#"
   xmlns:rdf="http://www.w3.org/1999/02/22-rdf-syntax-ns#"
   xmlns:svg="http://www.w3.org/2000/svg"
   xmlns="http://www.w3.org/2000/svg"
   version="1.1"
   id="svg2"
   enable-background="new 0 0 30 60"
   viewBox="0 0 30 60">
  <metadata
     id="metadata10">
    <rdf:RDF>
      <cc:Work
         rdf:about="">
        <dc:format>image/svg+xml</dc:format>
        <dc:type
           rdf:resource="http://purl.org/dc/dcmitype/StillImage" />
        <dc:title></dc:title>
      </cc:Work>
    </rdf:RDF>
  </metadata>
  <defs
     id="defs8" />
  <path
     style="opacity:0.98;fill:#bdbdbd;fill-opacity:1"
     id="path4"
     d="M28.6 31.5c-1.2-1.2-3.1-1.2-4.2 0l-9.3 9.3-9.3-9.3c-1.2-1.2-3.1-1.2-4.2 0-1.2 1.2-1.2 3.1 0 4.2l9.3 9.3-9.3 9.3c-1.2 1.2-1.2 3.1 0 4.2.6.6 1.4.9 2.1.9s1.5-.3 2.1-.9l9.3-9.3 9.3 9.3c.6.6 1.4.9 2.1.9s1.5-.3 2.1-.9c1.2-1.2 1.2-3.1 0-4.2l-9.3-9.3 9.3-9.3c1.2-1.1 1.2-3 0-4.2zM27 22h-24c-1.7 0-3 1.3-3 3s1.3 3 3 3h24c1.7 0 3-1.3 3-3s-1.3-3-3-3zM27 11h-24c-1.7 0-3 1.3-3 3s1.3 3 3 3h24c1.7 0 3-1.3 3-3s-1.3-3-3-3zM3 6h24c1.7 0 3-1.3 3-3s-1.3-3-3-3h-24c-1.7 0-3 1.3-3 3s1.3 3 3 3z" />
</svg>
