<?xml version="1.0" encoding="UTF-8" standalone="no"?>
<!-- Created with Inkscape (http://www.inkscape.org/) -->

<svg
   xmlns:dc="http://purl.org/dc/elements/1.1/"
   xmlns:cc="http://creativecommons.org/ns#"
   xmlns:rdf="http://www.w3.org/1999/02/22-rdf-syntax-ns#"
   xmlns:svg="http://www.w3.org/2000/svg"
   xmlns="http://www.w3.org/2000/svg"
   xmlns:xlink="http://www.w3.org/1999/xlink"
   xmlns:sodipodi="http://sodipodi.sourceforge.net/DTD/sodipodi-0.dtd"
   xmlns:inkscape="http://www.inkscape.org/namespaces/inkscape"
   width="297mm"
   height="420mm"
   viewBox="0 0 1052.3622 1488.189"
   id="svg2"
   version="1.1"
   inkscape:version="0.91 r13725"
   sodipodi:docname="logo_source.svg">
  <defs
     id="defs4" />
  <sodipodi:namedview
     id="base"
     pagecolor="#ffffff"
     bordercolor="#666666"
     borderopacity="1.0"
     inkscape:pageopacity="0.0"
     inkscape:pageshadow="2"
     inkscape:zoom="1"
     inkscape:cx="241.92272"
     inkscape:cy="251.67258"
     inkscape:document-units="px"
     inkscape:current-layer="g6228"
     showgrid="false"
     showguides="true"
     inkscape:guide-bbox="true"
     inkscape:window-width="1366"
     inkscape:window-height="744"
     inkscape:window-x="0"
     inkscape:window-y="24"
     inkscape:window-maximized="1"
     units="mm"
     fit-margin-top="0"
     fit-margin-left="-0.5"
     fit-margin-right="0"
     fit-margin-bottom="0">
    <inkscape:grid
       type="xygrid"
       id="grid4439"
       originx="-121.89262"
       originy="-238.73407" />
  </sodipodi:namedview>
  <metadata
     id="metadata7">
    <rdf:RDF>
      <cc:Work
         rdf:about="">
        <dc:format>image/svg+xml</dc:format>
        <dc:type
           rdf:resource="http://purl.org/dc/dcmitype/StillImage" />
        <dc:title />
      </cc:Work>
    </rdf:RDF>
  </metadata>
  <g
     inkscape:groupmode="layer"
     id="layer4"
     inkscape:label="Layer 3"
     style="display:none"
     sodipodi:insensitive="true"
     transform="translate(-121.89263,674.56087)">
    <path
       style="fill:none;fill-opacity:1;stroke:#003b61;stroke-width:15.19801807;stroke-linecap:butt;stroke-linejoin:round;stroke-miterlimit:4;stroke-dasharray:none;stroke-opacity:0.44559589"
       d="m -1730.3232,587.28125 a 28.605173,41.027683 0 0 0 -14.9785,5.48633 28.605173,41.027683 0 0 0 -14.3008,35.53125 l 57.209,-0.002 a 28.605173,41.027683 0 0 0 -14.3027,-35.5293 28.605173,41.027683 0 0 0 -13.627,-5.48633 z"
       id="path4626"
       inkscape:connector-curvature="0" />
    <path
       style="fill:none;fill-opacity:1;stroke:#003b61;stroke-width:15.19801807;stroke-linecap:butt;stroke-linejoin:round;stroke-miterlimit:4;stroke-dasharray:none;stroke-opacity:0.44559589"
       d="m -1729.003,630.3418 a 84.55188,66.667793 0 0 0 -44.2714,8.91406 84.55188,66.667793 0 0 0 -42.2754,57.73437 l 169.1035,0 a 84.55188,66.667793 0 0 0 -42.2754,-57.73437 84.55188,66.667793 0 0 0 -40.2813,-8.91406 z"
       id="path4624"
       inkscape:connector-curvature="0" />
    <path
       style="fill:none;fill-opacity:1;stroke:#003b61;stroke-width:15.19801807;stroke-linecap:butt;stroke-linejoin:round;stroke-miterlimit:4;stroke-dasharray:none;stroke-opacity:0.44559589"
       d="m -1822.6016,704.70898 c -16.62,0 -30,12.03584 -30,26.98633 0,14.9505 13.38,26.98828 30,26.98828 l 16.4004,0 c 1.2709,-0.127 2.5529,-0.20898 3.8516,-0.20898 l 142.7031,0 c 1.2984,0 2.5809,0.082 3.8516,0.20898 l 16.4004,0 c 16.62,0 30,-12.03778 30,-26.98828 0,-14.95049 -13.38,-26.98633 -30,-26.98633 l -183.2071,0 z"
       id="path4622"
       inkscape:connector-curvature="0" />
    <path
       style="fill:none;fill-opacity:1;stroke:#003b61;stroke-width:15.19801807;stroke-linecap:butt;stroke-linejoin:round;stroke-miterlimit:4;stroke-dasharray:none;stroke-opacity:0.44559589"
       d="m -1655.7949,758.68359 -150.4063,0 c -23.7205,2.37054 -42.2461,26.41288 -42.2461,55.9336 l 0,216.88081 c 0,31.1024 20.5597,56.1426 46.0977,56.1426 l 142.7031,0 c 25.538,0 46.0977,-25.0402 46.0977,-56.1426 l 0,-216.88081 c 0,-29.52102 -18.5253,-53.56348 -42.2461,-55.9336 z"
       id="rect4462-3"
       inkscape:connector-curvature="0" />
  </g>
  <g
     style="display:none"
     inkscape:label="Layer 3 copy"
     id="g4936"
     inkscape:groupmode="layer"
     sodipodi:insensitive="true"
     transform="translate(-121.89263,674.56087)">
    <path
       style="fill:none;fill-opacity:1;stroke:#690944;stroke-width:15.19801903;stroke-linecap:butt;stroke-linejoin:round;stroke-miterlimit:4;stroke-dasharray:none;stroke-opacity:1"
       d="m -1730.3224,583.59991 0,36.7834 30.7582,0 a 31.502005,36.794204 0 0 0 -15.7512,-31.86319 31.502005,36.794204 0 0 0 -15.007,-4.92021 z"
       id="path5081"
       inkscape:connector-curvature="0" />
    <path
       style="fill:none;fill-opacity:1;stroke:#690944;stroke-width:15.19801712;stroke-linecap:butt;stroke-linejoin:round;stroke-miterlimit:4;stroke-dasharray:none;stroke-opacity:1"
       d="m -1728.9594,619.72306 a 87.403132,85.01627 0 0 0 -1.3629,0.0348 l 0,84.95671 86.7035,0 a 87.403132,85.01627 0 0 0 -43.701,-73.62418 87.403132,85.01627 0 0 0 -41.6396,-11.36739 z"
       id="path5079"
       inkscape:connector-curvature="0" />
    <path
       style="fill:none;fill-opacity:1;stroke:#690944;stroke-width:15.19801807;stroke-linecap:butt;stroke-linejoin:round;stroke-miterlimit:4;stroke-dasharray:none;stroke-opacity:1"
       d="m -1730.3223,704.70898 0,53.76563 70.6758,0 c 1.2984,0 2.5809,0.082 3.8516,0.20898 l 16.4004,0 c 36.12,0 30,-12.03778 30,-26.98828 0,-14.95049 -13.38,-26.98633 -30,-26.98633 z"
       id="path5077"
       inkscape:connector-curvature="0"
       sodipodi:nodetypes="ccscsssc" />
    <path
       style="fill:none;fill-opacity:1;stroke:#690944;stroke-width:15.19801712;stroke-linecap:butt;stroke-linejoin:round;stroke-miterlimit:4;stroke-dasharray:none;stroke-opacity:1"
       d="m -1655.7949,758.68344 -74.5274,0 0,385.95726 70.6758,0 c 25.538,0 46.6235,-29.3828 46.0977,-65.8707 -1.2267,-85.12708 -9.371,-177.77312 5,-253.46104 6.4538,-33.99051 -23.5253,-63.84472 -47.2461,-66.62552 z"
       id="path4944"
       inkscape:connector-curvature="0"
       sodipodi:nodetypes="cccsssc" />
    <use
       x="0"
       y="0"
       xlink:href="#path5081"
       id="use5083"
       transform="matrix(-1,0,0,1,-3460.6489,0)"
       width="100%"
       height="100%" />
    <use
       x="0"
       y="0"
       xlink:href="#path5079"
       id="use5085"
       transform="matrix(-1,0,0,1,-3460.6489,0)"
       width="100%"
       height="100%" />
    <use
       x="0"
       y="0"
       xlink:href="#path5077"
       id="use5087"
       transform="matrix(-1,0,0,1,-3460.6489,0)"
       width="100%"
       height="100%" />
    <use
       x="0"
       y="0"
       xlink:href="#path4944"
       id="use5089"
       transform="matrix(-1,0,0,1,-3460.6489,0)"
       width="100%"
       height="100%" />
    <path
       id="path5091"
       d="m -1730.3223,-292.71875 0,41.01563 27.9297,0 a 28.605173,41.027683 0 0 0 -14.3027,-35.5293 28.605173,41.027683 0 0 0 -13.627,-5.48633 z"
       style="fill:none;fill-opacity:1;stroke:#610054;stroke-width:15.19801807;stroke-linecap:butt;stroke-linejoin:round;stroke-miterlimit:4;stroke-dasharray:none;stroke-opacity:0.44559595"
       inkscape:connector-curvature="0" />
    <path
       id="path5093"
       d="m -1729.0039,-249.6582 a 84.55188,66.667793 0 0 0 -1.3184,0.0273 l 0,66.62109 83.875,0 a 84.55188,66.667793 0 0 0 -42.2754,-57.73437 84.55188,66.667793 0 0 0 -40.2812,-8.91406 z"
       style="fill:none;fill-opacity:1;stroke:#610054;stroke-width:15.19801807;stroke-linecap:butt;stroke-linejoin:round;stroke-miterlimit:4;stroke-dasharray:none;stroke-opacity:0.44559595"
       inkscape:connector-curvature="0" />
    <path
       id="path5095"
       d="m -1730.3223,-175.29102 0,53.76563 70.6758,0 c 1.2984,0 2.5809,0.082 3.8516,0.20898 l 16.4004,0 c 16.62,0 30,-12.03778 30,-26.98828 0,-14.95049 -13.38,-26.98633 -30,-26.98633 l -90.9278,0 z"
       style="fill:none;fill-opacity:1;stroke:#610054;stroke-width:15.19801807;stroke-linecap:butt;stroke-linejoin:round;stroke-miterlimit:4;stroke-dasharray:none;stroke-opacity:0.44559595"
       inkscape:connector-curvature="0" />
    <path
       id="path5097"
       d="m -1655.7949,-121.31641 -74.5274,0 0,328.95701 70.6758,0 c 25.538,0 46.0977,-25.0402 46.0977,-56.1426 0,-72.293603 0,-144.5872067 0,-216.88081 0,-29.52102 -18.5253,-53.56348 -42.2461,-55.9336 z"
       style="fill:none;fill-opacity:1;stroke:#610054;stroke-width:15.19801807;stroke-linecap:butt;stroke-linejoin:round;stroke-miterlimit:4;stroke-dasharray:none;stroke-opacity:0.44559595"
       inkscape:connector-curvature="0"
       sodipodi:nodetypes="cccsssc" />
    <use
       height="100%"
       width="100%"
       transform="matrix(-1,0,0,1,-3460.6489,-873.08646)"
       id="use5099"
       xlink:href="#path5081"
       y="0"
       x="0"
       style="stroke:#610054;stroke-opacity:0.44559595" />
    <use
       height="100%"
       width="100%"
       transform="matrix(-1,0,0,1,-3460.6489,-887.72441)"
       id="use5101"
       xlink:href="#path5079"
       y="0"
       x="0"
       style="stroke:#610054;stroke-opacity:0.44559595" />
    <use
       height="100%"
       width="100%"
       transform="matrix(-1,0,0,1,-3460.6489,-880)"
       id="use5103"
       xlink:href="#path5077"
       y="0"
       x="0"
       style="stroke:#610054;stroke-opacity:0.44559595" />
    <use
       height="100%"
       width="100%"
       transform="matrix(-1,0,0,1,-3460.6489,-880)"
       id="use5105"
       xlink:href="#path4944"
       y="0"
       x="0"
       style="stroke:#610054;stroke-opacity:0.44559595" />
    <text
       xml:space="preserve"
       style="font-style:normal;font-weight:normal;font-size:312.5px;line-height:125%;font-family:sans-serif;letter-spacing:0px;word-spacing:0px;fill:#690943;fill-opacity:1;stroke:#690944;stroke-width:1px;stroke-linecap:butt;stroke-linejoin:miter;stroke-opacity:1"
       x="-1862"
       y="1000.3622"
       id="text5111"
       sodipodi:linespacing="125%"><tspan
         sodipodi:role="line"
         id="tspan5113"
         x="-1862"
         y="1000.3622"
         style="font-size:312.5px;fill:#690943;fill-opacity:1;stroke:#690944;stroke-opacity:1">~</tspan></text>
  </g>
  <g
     inkscape:groupmode="layer"
     id="g5118"
     inkscape:label="Layer 3 copy copy"
     style="display:none"
     sodipodi:insensitive="true"
     transform="translate(-121.89263,674.56087)">
    <g
       style="font-style:normal;font-weight:normal;font-size:287.5px;line-height:125%;font-family:sans-serif;letter-spacing:0px;word-spacing:0px;fill:#000000;fill-opacity:1;stroke:none;stroke-width:1px;stroke-linecap:butt;stroke-linejoin:miter;stroke-opacity:0.53881273"
       id="text5152"
       transform="translate(2100.2493,-358.38182)">
      <g
         id="g5232"
         transform="translate(6,44)">
        <g
           id="g5295"
           transform="translate(10,3.9999999)">
          <path
             inkscape:connector-curvature="0"
             style="display:inline;fill:none;fill-opacity:1;stroke:#000000;stroke-width:15.19801712;stroke-linecap:butt;stroke-linejoin:round;stroke-miterlimit:4;stroke-dasharray:none;stroke-opacity:1"
             d="m -1730.3262,582.97461 c -5.2762,0.14588 -10.4373,1.83745 -15.0078,4.91992 -9.7464,6.57232 -15.7495,18.71847 -15.75,31.86328 l 29.3945,0 1.3633,0 1.3633,0 29.3945,0 c -5e-4,-13.14481 -6.0055,-25.29096 -15.7519,-31.86328 -4.5705,-3.08247 -9.7297,-4.77404 -15.0059,-4.91992 z m 1.3633,36.7832 c -0.4545,0.008 -0.909,0.0201 -1.3633,0.0352 -0.4543,-0.0152 -0.9088,-0.027 -1.3633,-0.0352 -14.6393,0.33644 -28.9572,4.24516 -41.6386,11.36719 -27.0299,15.17971 -43.6858,43.2269 -43.7012,73.58398 l 86.7031,0 86.7032,0 c -0.015,-30.35708 -16.6713,-58.40427 -43.7012,-73.58398 -12.6815,-7.12204 -26.9993,-11.03076 -41.6387,-11.36719 z m 85.3399,84.95117 c 0,0.0137 0,0.0273 0,0.041 l -86.7032,0 -86.7031,0 c 0,-0.0137 0,-0.0273 0,-0.041 l -4.2246,0 c -16.62,0 -30,12.03584 -30,26.98633 0,14.9505 -6.12,26.98828 30,26.98828 l 16.4004,0 c 1.2707,-0.12698 2.5531,-0.20898 3.8515,-0.20898 l 70.6758,0 70.6758,0 c 1.2984,0 2.5809,0.082 3.8516,0.20898 l 16.4004,0 c 36.12,0 30,-12.03778 30,-26.98828 0,-14.95049 -13.38,-26.98633 -30,-26.98633 l -4.2246,0 z m -12.1758,53.97461 -74.5274,0 -74.5273,0 c -23.7208,2.72564 -53.6999,31.98655 -47.2461,65.30274 14.371,74.18638 6.2267,164.99537 5,248.43357 -0.5258,35.7641 20.5596,64.5645 46.0976,64.5645 l 70.6758,0 70.6758,0 c 25.538,0 46.6235,-28.8004 46.0977,-64.5645 -1.2267,-83.4382 -9.371,-174.24718 5,-248.43357 6.4538,-33.31619 -23.5253,-62.57711 -47.2461,-65.30274 z"
             id="path5213" />
          <path
             d="m -1640.342,886.35736 0,24.98779 q -14.74,11.09009 -27.3743,15.86304 -12.4939,4.77295 -26.1108,4.77295 -15.4419,0 -35.9375,-8.28247 -1.5442,-0.56152 -2.2461,-0.84229 -0.9827,-0.42114 -3.0884,-1.12304 -21.7591,-8.70362 -34.9549,-8.70362 -12.3535,0 -24.4262,5.47486 -12.0728,5.33447 -25.8301,16.98608 l 0,-24.98779 q 14.74,-11.09009 27.2339,-15.86304 12.6343,-4.91333 26.2512,-4.91333 15.4419,0 36.0779,8.42285 1.4038,0.56153 2.1057,0.84229 1.123,0.42114 3.0884,1.12305 21.759,8.70361 34.9548,8.70361 12.0728,0 23.8648,-5.33447 11.9323,-5.33448 26.3916,-17.12647 z"
             style="font-size:287.5px;fill:#000000;fill-opacity:1;stroke:none;stroke-opacity:0.53881273"
             id="path5228"
             inkscape:connector-curvature="0" />
        </g>
      </g>
    </g>
  </g>
  <g
     style="display:inline"
     inkscape:label="Layer 3 copy copy copy"
     id="g5432"
     inkscape:groupmode="layer"
     transform="translate(-121.89263,674.56087)">
    <g
       style="font-style:normal;font-weight:normal;font-size:medium;line-height:125%;font-family:sans-serif;letter-spacing:0px;word-spacing:0px;fill:#000000;fill-opacity:1;stroke:none;stroke-width:1px;stroke-linecap:butt;stroke-linejoin:miter;stroke-opacity:0.53881273"
       id="g5436"
       transform="translate(2106.2493,-314.38182)">
      <g
         id="g6228"
         transform="translate(10,3.9999999)">
        <g
           id="g4172">
          <path
             sodipodi:nodetypes="ccccc"
             inkscape:connector-curvature="0"
             id="path4180"
             d="m -1539.132,713.66956 c 9.5906,-9.59135 14.0714,-22.83516 11.7555,-34.74196 -1.0858,-5.58391 -3.6159,-10.58251 -7.3591,-14.53868 -3.9562,-3.74328 -8.9562,-6.27479 -14.5402,-7.36052 -11.9067,-2.31594 -25.1491,2.16628 -34.7405,11.7569"
             style="display:inline;fill:none;fill-opacity:1;stroke:#ada9a9;stroke-width:15.19801712;stroke-linecap:butt;stroke-linejoin:round;stroke-miterlimit:4;stroke-dasharray:none;stroke-opacity:1" />
          <path
             id="path4178"
             d="m -1559.4998,691.08108 c -0.327,-0.31572 -0.657,-0.62855 -0.9889,-0.93911 -0.3105,-0.33199 -0.6235,-0.66171 -0.9391,-0.98889 -10.5894,-10.11365 -23.4776,-17.47405 -37.4807,-21.40512 -29.8467,-8.37935 -61.4566,-0.32449 -82.9332,21.13032 l 61.3084,61.30835 61.3084,61.30842 c 21.4551,-21.4763 29.5096,-53.08645 21.1303,-82.93315 -3.9311,-14.00321 -11.2915,-26.89131 -21.4052,-37.48082 z"
             style="display:inline;fill:none;fill-opacity:1;stroke:#ada9a9;stroke-width:15.19801712;stroke-linecap:butt;stroke-linejoin:round;stroke-miterlimit:4;stroke-dasharray:none;stroke-opacity:1" />
          <path
             id="path4176"
             d="m -1559.2249,811.49505 c -0.01,0.01 -0.019,0.0193 -0.029,0.029 l -61.3084,-61.30842 -61.3084,-61.30835 c 0.01,-0.01 0.019,-0.0193 0.029,-0.029 l -2.9872,-2.98724 c -11.7522,-11.75212 -29.7239,-12.70258 -40.2955,-2.13099 -10.5716,10.5716 -23.411,14.7561 2.1296,40.2968 l 11.5969,11.59683 c 0.9883,0.80873 1.9531,1.65755 2.8712,2.57565 l 49.9753,49.97534 49.9754,49.97534 c 0.9181,0.9181 1.7669,1.88295 2.5757,2.87126 l 11.5968,11.59684 c 25.5407,25.54069 29.7252,12.7012 40.2968,2.1296 10.5716,-10.57159 9.6211,-28.5433 -2.131,-40.29542 l -2.9872,-2.98724 z"
             style="display:inline;fill:none;fill-opacity:1;stroke:#ada9a9;stroke-width:15.19801712;stroke-linecap:butt;stroke-linejoin:round;stroke-miterlimit:4;stroke-dasharray:none;stroke-opacity:1" />
          <path
             id="path5440"
             d="m -1606.0003,841.05127 -52.6989,-52.69883 -52.6987,-52.69876 c -18.7005,-14.84582 -60.5895,-15.35365 -79.5841,12.76797 -42.2958,62.61953 -112.2664,121.07229 -172.1335,179.2046 -25.6608,24.91724 -31.1162,60.19183 -13.0581,78.24995 l 49.9754,49.9753 49.9753,49.9753 c 18.0581,18.0581 53.3328,12.6029 78.25,-13.058 58.1323,-59.8671 116.5851,-129.83761 179.2046,-172.13348 28.1216,-18.99458 27.6138,-60.8836 12.768,-79.58405 z"
             style="display:inline;fill:none;fill-opacity:1;stroke:#ada9a9;stroke-width:15.19801712;stroke-linecap:butt;stroke-linejoin:round;stroke-miterlimit:4;stroke-dasharray:none;stroke-opacity:1" />
          <g
             transform="translate(-4.3359908,1.9436848)"
             id="text6119"
             style="font-style:normal;font-weight:normal;font-size:40px;line-height:125%;font-family:sans-serif;letter-spacing:0px;word-spacing:0px;fill:#ada9a9;fill-opacity:1;stroke:#ada9a9;stroke-width:1px;stroke-linecap:butt;stroke-linejoin:miter;stroke-opacity:1">
            <path
               id="path6226"
               style="font-size:375px;fill:#ada9a9;fill-opacity:1;stroke:#ada9a9;stroke-opacity:1"
               d="m -1669.632,887.00476 0,32.59277 q -19.226,14.46534 -35.7055,20.69092 -16.2964,6.22559 -34.0576,6.22559 -20.1416,0 -46.875,-10.80322 -2.0142,-0.73243 -2.9297,-1.09864 -1.2818,-0.54931 -4.0283,-1.46484 -28.3814,-11.35254 -45.5933,-11.35254 -16.1133,0 -31.8604,7.14111 -15.747,6.95801 -33.6914,22.15576 l 0,-32.59277 q 19.2261,-14.46533 35.5225,-20.69092 16.4795,-6.40869 34.2407,-6.40869 20.1416,0 47.0581,10.98633 1.8311,0.73242 2.7466,1.09863 1.4648,0.54932 4.0283,1.46485 28.3814,11.35254 45.5933,11.35254 15.7471,0 31.1279,-6.95801 15.564,-6.95801 34.4238,-22.33887 z"
               inkscape:connector-curvature="0" />
          </g>
        </g>
      </g>
    </g>
  </g>
</svg>
